<?xml version="1.0" encoding="utf-8"?>
<!DOCTYPE svg PUBLIC "-//W3C//DTD SVG 1.1//EN" "http://www.w3.org/Graphics/SVG/1.1/DTD/svg11.dtd">
<svg version="1.1" id="Layer_1" xmlns="http://www.w3.org/2000/svg" xmlns:xlink="http://www.w3.org/1999/xlink" x="0px" y="0px"
	 width="101px" height="100px" viewBox="0 0 101 100" enable-background="new 0 0 101 100" xml:space="preserve">
<filter  height="200%" width="200%" x="-50%" y="-50%" id="filter-5" filterUnits="objectBoundingBox">
	<feOffset  dx="0" dy="3" in="SourceAlpha" result="shadowOffsetOuter1"></feOffset>
	<feGaussianBlur  in="shadowOffsetOuter1" stdDeviation="7" result="shadowBlurOuter1"></feGaussianBlur>
	<feColorMatrix  type="matrix" values="0 0 0 0 0   0 0 0 0 0   0 0 0 0 0  0 0 0 0.5 0" in="shadowBlurOuter1"></feColorMatrix>
</filter>
<filter  height="200%" width="200%" x="-50%" y="-50%" id="filter-3" filterUnits="objectBoundingBox">
	<feOffset  dx="0" dy="3" in="SourceAlpha" result="shadowOffsetOuter1"></feOffset>
	<feGaussianBlur  in="shadowOffsetOuter1" stdDeviation="7" result="shadowBlurOuter1"></feGaussianBlur>
	<feColorMatrix  type="matrix" values="0 0 0 0 0   0 0 0 0 0   0 0 0 0 0  0 0 0 0.5 0" in="shadowBlurOuter1"></feColorMatrix>
</filter>
<g>
	
		<radialGradient id="Oval_1_" cx="-145.9448" cy="247.0381" r="0.7131" gradientTransform="matrix(99.794 0 0 -99.794 14614.8701 24652.9004)" gradientUnits="userSpaceOnUse">
		<stop  offset="0" style="stop-color:#656565"/>
		<stop  offset="1" style="stop-color:#353535"/>
	</radialGradient>
	<circle id="Oval" fill="url(#Oval_1_)" cx="50.483" cy="49.897" r="49.897"/>
</g>
<g id="shadow" transform="translate(22.802850, 15.676960)">
	<g id="Combined-Shape">
		<g filter="url(#filter-3)">
			<path id="path-2_2_" d="M24.782,62.169l1.996,5.281c0.194,0.515,0.016,0.631-0.387,0.271L1.28,45.257
				c-0.328-0.293-0.314-0.541-0.014-0.627C0.99,44.543,1,44.31,1.337,44.033l12.545-10.315l4.262,10.889l5.385,14.25h0.016
				l-5.4-14.25h9.227l-0.089,14.25h0.05v9.571l-0.186-0.456c-0.066,0.059-0.168-0.057-0.281-0.354l-1.812-4.781L24.782,62.169z
				 M26.759,23.339c0.307-0.185,0.407-0.025,0.222,0.411l-8.836,20.856l-4.262-10.889l12.824-10.334
				C26.725,23.369,26.742,23.354,26.759,23.339z M27.371,44.606h-9.227l8.858-20.894c0.216-0.51,0.391-0.468,0.39,0.071
				L27.371,44.606z"/>
		</g>
		<g>
			<path id="path-2_1_" d="M24.782,62.169l1.996,5.281c0.194,0.515,0.016,0.631-0.387,0.271L1.28,45.257
				c-0.328-0.293-0.314-0.541-0.014-0.627C0.99,44.543,1,44.31,1.337,44.033l12.545-10.315l4.262,10.889l5.385,14.25h0.016
				l-5.4-14.25h9.227l-0.089,14.25h0.05v9.571l-0.186-0.456c-0.066,0.059-0.168-0.057-0.281-0.354l-1.812-4.781L24.782,62.169z
				 M26.759,23.339c0.307-0.185,0.407-0.025,0.222,0.411l-8.836,20.856l-4.262-10.889l12.824-10.334
				C26.725,23.369,26.742,23.354,26.759,23.339z M27.371,44.606h-9.227l8.858-20.894c0.216-0.51,0.391-0.468,0.39,0.071
				L27.371,44.606z"/>
		</g>
	</g>
	<g id="Combined-Shape_1_" transform="translate(40.103397, 34.278470) scale(-1, 1) translate(-40.103397, -34.278470) ">
		<g filter="url(#filter-5)">
			<path id="path-4_2_" d="M50.272,62.169l1.996,5.281c0.194,0.515,0.016,0.631-0.387,0.271L26.77,45.257
				c-0.327-0.293-0.313-0.541-0.013-0.627c-0.277-0.087-0.268-0.319,0.07-0.597l12.545-10.315l4.263,10.889l5.385,14.25h0.015
				l-5.399-14.25h9.227l-0.09,14.25h0.05v9.571l-0.186-0.456c-0.067,0.059-0.168-0.057-0.281-0.354l-1.812-4.781L50.272,62.169z
				 M52.249,23.339c0.308-0.185,0.408-0.025,0.223,0.411l-8.836,20.856l-4.263-10.889L26.565,0.96
				c-0.202-0.517-0.028-0.649,0.392-0.292L52.22,22.111C52.621,22.452,52.628,22.99,52.249,23.339z M52.863,44.606h-9.227
				l8.858-20.894c0.216-0.51,0.391-0.468,0.391,0.071L52.863,44.606z"/>
		</g>
		<g>
			<path id="path-4_1_" d="M50.272,62.169l1.996,5.281c0.194,0.515,0.016,0.631-0.387,0.271L26.77,45.257
				c-0.327-0.293-0.313-0.541-0.013-0.627c-0.277-0.087-0.268-0.319,0.07-0.597l12.545-10.315l4.263,10.889l5.385,14.25h0.015
				l-5.399-14.25h9.227l-0.09,14.25h0.05v9.571l-0.186-0.456c-0.067,0.059-0.168-0.057-0.281-0.354l-1.812-4.781L50.272,62.169z
				 M52.249,23.339c0.308-0.185,0.408-0.025,0.223,0.411l-8.836,20.856l-4.263-10.889L26.565,0.96
				c-0.202-0.517-0.028-0.649,0.392-0.292L52.22,22.111C52.621,22.452,52.628,22.99,52.249,23.339z M52.863,44.606h-9.227
				l8.858-20.894c0.216-0.51,0.391-0.468,0.391,0.071L52.863,44.606z"/>
		</g>
	</g>
</g>
<g id="fox">
	
		<linearGradient id="color_1_" gradientUnits="userSpaceOnUse" x1="50.1616" y1="196.3496" x2="50.1616" y2="212.1348" gradientTransform="matrix(1 0 0 4.3283 0 -833.7295)">
		<stop  offset="0" style="stop-color:#F9A645"/>
		<stop  offset="1" style="stop-color:#F06D21"/>
	</linearGradient>
	<path id="color" fill="url(#color_1_)" d="M23.507,16.682c0,0-0.183-0.838,0.639-0.432c0.789,0.659,25.385,21.538,25.385,21.538
		s0.641,0.819,1.258,0c0.867-0.726,24.242-20.663,24.242-20.663l1.146-0.875c0,0,0.638-0.479,0.638,0.432s0.018,42.608,0.018,42.608
		s0.068,0.991-0.476,1.522S50.135,84.447,50.135,84.447L23.874,60.675c0,0-0.385-0.157-0.384-1.385S23.507,16.682,23.507,16.682z"/>
	<path id="cheek_-_left" fill="#FFFFFF" d="M23.613,60.273l17.3,0.047l9.222,24.127L23.874,60.675
		C23.874,60.675,23.727,60.485,23.613,60.273z"/>
	<path id="cheek_-_right" fill="#FFFFFF" d="M76.766,60.273l-17.3,0.047l-9.222,24.127l26.262-23.772
		C76.506,60.675,76.652,60.485,76.766,60.273z"/>
	<polygon id="eye_-_left" fill="#353535" points="32.836,60.32 40.913,60.32 43.513,67.165 	"/>
	<polygon id="eye_-_right" fill="#353535" points="56.809,67.165 67.484,60.32 59.374,60.284 	"/>
	<polygon id="nose_2_" fill="#353535" points="46.359,74.533 53.966,74.533 50.187,84.373 	"/>
	<polygon id="ear_-_right" fill="#FFFFFF" points="76.713,60.195 63.637,49.395 76.713,16.389 	"/>
	<polygon id="ear_-_left" fill="#FFFFFF" points="23.771,60.195 36.848,49.395 23.771,16.389 	"/>
</g>
<g id="lines" display="none">
	
		<line display="inline" fill="none" stroke="#353535" stroke-width="0.5" stroke-miterlimit="10" x1="23.956" y1="60.195" x2="36.584" y2="49.612"/>
	
		<line display="inline" fill="none" stroke="#353535" stroke-width="0.5" stroke-miterlimit="10" x1="23.771" y1="16.389" x2="50.187" y2="84.373"/>
	
		<line display="inline" fill="none" stroke="#353535" stroke-width="0.5" stroke-miterlimit="10" x1="76.713" y1="16.389" x2="50.297" y2="84.373"/>
	
		<line display="inline" fill="none" stroke="#353535" stroke-width="0.5" stroke-miterlimit="10" x1="76.713" y1="16.389" x2="50.297" y2="84.373"/>
	
		<line display="inline" fill="none" stroke="#353535" stroke-width="0.5" stroke-miterlimit="10" x1="23.239" y1="60.273" x2="76.481" y2="60.273"/>
	<polyline display="inline" fill="none" stroke="#353535" stroke-width="0.5" stroke-miterlimit="10" points="40.823,60.273 
		50.189,38.402 59.661,60.273 	"/>
	
		<line display="inline" fill="none" stroke="#353535" stroke-width="0.5" stroke-miterlimit="10" x1="76.528" y1="60.195" x2="63.9" y2="49.612"/>
	<path display="inline" fill="#353535" d="M50.134,84.784L23.728,60.881c-0.161-0.098-0.489-0.438-0.489-1.591l0.018-42.608
		c-0.009-0.017-0.076-0.376,0.114-0.611c0.111-0.139,0.42-0.275,0.886-0.045c0.83,0.685,25.19,21.363,25.436,21.572
		c0.094,0.11,0.294,0.305,0.496,0.305c0.133,0,0.268-0.089,0.4-0.265c0.896-0.758,24.046-20.503,24.279-20.703l1.156-0.883
		c0.04-0.03,0.247-0.177,0.482-0.177c0.167,0,0.557,0.079,0.557,0.808c0,0.912,0.018,42.608,0.018,42.608
		c0.003,0.028,0.068,1.097-0.551,1.701c-0.542,0.529-25.181,22.698-26.229,23.642L50.134,84.784z M23.771,16.389
		c-0.036,0.028-0.037,0.161-0.02,0.24L23.739,59.29c0,0.975,0.25,1.163,0.253,1.165L50.135,84.11
		c2.222-1.999,25.536-22.978,26.046-23.477c0.379-0.37,0.418-1.083,0.401-1.326c-0.001-0.018-0.019-41.714-0.019-42.625
		c0-0.253-0.056-0.311-0.057-0.311c-0.051,0.003-0.138,0.047-0.182,0.08l-1.144,0.873C74.96,17.515,51.808,37.262,50.95,37.98
		c-0.192,0.266-0.462,0.422-0.761,0.422c-0.48,0-0.818-0.413-0.854-0.46c-0.211-0.172-24.57-20.85-25.349-21.5
		C23.886,16.4,23.806,16.389,23.771,16.389z"/>
</g>
</svg>
